# xmcd
#
# Track frame offsets:
#	150
#	17258
#	39530
#	57473
#	76784
#	95808
#	111388
#	126239
#	139734
#	151185
#	165589
#	180054
#
# Disc length: 2630 seconds
#
# Revision: 1
# Processed by: cddbd v1.5.2PL0 Copyright (c) Steve Scherf et al.
# Submitted via: audiograbber 1.82.01
#
DISCID=8e0a440c
DTITLE=Bruce Feiner and Friends - Time To Grow
DYEAR=2007
DGENRE=Blues
TTITLE0=Boy Meets Girl
TTITLE1=You Have Changed
TTITLE2=Stormy Heather
TTITLE3=I Wanna Be Free
TTITLE4=Rippin' and Runnin'
TTITLE5=I'll Be Alright
TTITLE6=Invisible Me
TTITLE7=Hurtin' Me
TTITLE8=Time To Grow
TTITLE9=SoulfuLee
TTITLE10=Some Good
TTITLE11=You Got The Love
EXTD=
EXTT0=
EXTT1=
EXTT2=
EXTT3=
EXTT4=
EXTT5=
EXTT6=
EXTT7=
EXTT8=
EXTT9=
EXTT10=
EXTT11=
PLAYORDER=
